<?xml version="1.0" encoding="UTF-8" standalone="no" ?>
<!DOCTYPE svg PUBLIC "-//W3C//DTD SVG 1.1//EN" "http://www.w3.org/Graphics/SVG/1.1/DTD/svg11.dtd">
<svg xmlns="http://www.w3.org/2000/svg" xmlns:xlink="http://www.w3.org/1999/xlink" version="1.1" width="1080" height="1080" viewBox="0 0 1080 1080" xml:space="preserve">
<desc>Created with Fabric.js 4.2.0</desc>
<defs>
</defs>
<rect x="0" y="0" width="100%" height="100%" fill="transparent"></rect>
<g transform="matrix(1 0 0 1 540 540)" id="f28a38bd-b8bc-4ae8-ad07-5642bb4ee028"  >
<rect style="stroke: none; stroke-width: 1; stroke-dasharray: none; stroke-linecap: butt; stroke-dashoffset: 0; stroke-linejoin: miter; stroke-miterlimit: 4; fill: rgb(255,255,255); fill-opacity: 0; fill-rule: nonzero; opacity: 1;" vector-effect="non-scaling-stroke"  x="-540" y="-540" rx="0" ry="0" width="1080" height="1080" />
</g>
<g transform="matrix(Infinity NaN NaN Infinity 0 0)" id="a5296d29-5c44-4f4f-a64d-4eb270b97c96"  >
</g>
<g transform="matrix(52.79 0 0 52.79 540 540)" id="50a03052-5a2d-4f24-8196-12d8c6068b3b"  >
<path style="stroke: rgb(0,0,0); stroke-width: 0; stroke-dasharray: none; stroke-linecap: butt; stroke-dashoffset: 0; stroke-linejoin: miter; stroke-miterlimit: 4; fill: rgb(0,0,0); fill-rule: nonzero; opacity: 0.68;" vector-effect="non-scaling-stroke"  transform=" translate(-12, -12)" d="M 11.23 13.08 C 10.940000000000001 12.87 10.75 12.57 10.690000000000001 12.22 C 10.63 11.870000000000001 10.71 11.510000000000002 10.920000000000002 11.23 C 11.130000000000003 10.940000000000001 11.430000000000001 10.75 11.780000000000001 10.690000000000001 C 12.13 10.63 12.48 10.71 12.770000000000001 10.920000000000002 C 13.06 11.130000000000003 13.250000000000002 11.430000000000001 13.310000000000002 11.780000000000001 C 13.370000000000003 12.13 13.290000000000003 12.490000000000002 13.080000000000002 12.770000000000001 C 12.831808519940974 13.12041002932875 12.42940112545297 13.329065715359567 12.000000000000002 13.330000000000002 C 11.720000000000002 13.330000000000002 11.450000000000001 13.250000000000002 11.230000000000002 13.080000000000002 z M 22 12 C 22 17.52 17.52 22 12 22 C 6.48 22 2 17.52 2 12 C 2 6.48 6.48 2 12 2 C 17.52 2 22 6.48 22 12 z M 18.03 5.97 L 9.8 9.8 L 5.970000000000001 18.03 L 14.200000000000001 14.200000000000001 L 18.03 5.970000000000001 z" stroke-linecap="round" />
</g>
</svg>