<?xml version="1.0" encoding="UTF-8" standalone="no" ?>
<!DOCTYPE svg PUBLIC "-//W3C//DTD SVG 1.1//EN" "http://www.w3.org/Graphics/SVG/1.1/DTD/svg11.dtd">
<svg xmlns="http://www.w3.org/2000/svg" xmlns:xlink="http://www.w3.org/1999/xlink" version="1.1" width="1080" height="1080" viewBox="0 0 1080 1080" xml:space="preserve">
<desc>Created with Fabric.js 4.2.0</desc>
<defs>
</defs>
<g transform="matrix(1 0 0 1 540 540)" id="f28a38bd-b8bc-4ae8-ad07-5642bb4ee028"  >
<rect style="stroke: none; stroke-width: 1; stroke-dasharray: none; stroke-linecap: butt; stroke-dashoffset: 0; stroke-linejoin: miter; stroke-miterlimit: 4; fill: rgb(255,255,255); fill-opacity: 0; fill-rule: nonzero; opacity: 1;" vector-effect="non-scaling-stroke"  x="-540" y="-540" rx="0" ry="0" width="1080" height="1080" />
</g>
<g transform="matrix(Infinity NaN NaN Infinity 0 0)" id="a5296d29-5c44-4f4f-a64d-4eb270b97c96"  >
</g>
<g transform="matrix(56.62 0 0 56.62 540 540)" id="22d3c951-3d0f-4372-bbfb-089d730ce5c6"  >
<path style="stroke: rgb(0,0,0); stroke-width: 0; stroke-dasharray: none; stroke-linecap: butt; stroke-dashoffset: 0; stroke-linejoin: miter; stroke-miterlimit: 4; fill: rgb(0,0,0); fill-rule: nonzero; opacity: 0.94;" vector-effect="non-scaling-stroke"  transform=" translate(-12, -11.5)" d="M 12 14 C 13.66 14 14.99 12.66 14.99 11 L 15 5 C 15 3.34 13.66 2 12 2 C 10.34 2 9 3.34 9 5 L 9 11 C 9 12.66 10.34 14 12 14 z M 17.3 11 C 17.3 14 14.760000000000002 16.1 12 16.1 C 9.239999999999998 16.1 6.7 14 6.7 11 L 5 11 C 5 14.41 7.720000000000001 17.23 11 17.72 L 11 21 L 13 21 L 13 17.72 C 16.28 17.24 19 14.419999999999998 19 11 L 17.3 11 z" stroke-linecap="round" />
</g>
</svg>