<?xml version="1.0" encoding="UTF-8" standalone="no" ?>
<!DOCTYPE svg PUBLIC "-//W3C//DTD SVG 1.1//EN" "http://www.w3.org/Graphics/SVG/1.1/DTD/svg11.dtd">
<svg xmlns="http://www.w3.org/2000/svg" xmlns:xlink="http://www.w3.org/1999/xlink" version="1.1" width="1080" height="1080" viewBox="0 0 1080 1080" xml:space="preserve">
<desc>Created with Fabric.js 4.2.0</desc>
<defs>
</defs>
<rect x="0" y="0" width="100%" height="100%" fill="transparent"></rect>
<g transform="matrix(1 0 0 1 540 540)" id="f28a38bd-b8bc-4ae8-ad07-5642bb4ee028"  >
<rect style="stroke: none; stroke-width: 1; stroke-dasharray: none; stroke-linecap: butt; stroke-dashoffset: 0; stroke-linejoin: miter; stroke-miterlimit: 4; fill: rgb(255,255,255); fill-opacity: 0; fill-rule: nonzero; opacity: 1;" vector-effect="non-scaling-stroke"  x="-540" y="-540" rx="0" ry="0" width="1080" height="1080" />
</g>
<g transform="matrix(Infinity NaN NaN Infinity 0 0)" id="a5296d29-5c44-4f4f-a64d-4eb270b97c96"  >
</g>
<g transform="matrix(54.81 0 0 54.81 540 540)" id="b3cf6c50-2add-489c-9aab-6fbaeb4419fd"  >
<path style="stroke: rgb(0,0,0); stroke-width: 0; stroke-dasharray: none; stroke-linecap: butt; stroke-dashoffset: 0; stroke-linejoin: miter; stroke-miterlimit: 4; fill: rgb(0,0,0); fill-rule: nonzero; opacity: 0.8;" vector-effect="non-scaling-stroke"  transform=" translate(-12, -12.25)" d="M 12 22 C 13.1 22 14 21.1 14 20 L 10 20 C 10 21.1 10.9 22 12 22 z M 18 16 L 18 11 C 18 7.93 16.36 5.36 13.5 4.68 L 13.5 4 C 13.5 3.17 12.83 2.5 12 2.5 C 11.17 2.5 10.5 3.17 10.5 4 L 10.5 4.68 C 7.63 5.36 6 7.92 6 11 L 6 16 L 4 18 L 4 19 L 20 19 L 20 18 L 18 16 z" stroke-linecap="round" />
</g>
</svg>