<?xml version="1.0" encoding="UTF-8" standalone="no" ?>
<!DOCTYPE svg PUBLIC "-//W3C//DTD SVG 1.1//EN" "http://www.w3.org/Graphics/SVG/1.1/DTD/svg11.dtd">
<svg xmlns="http://www.w3.org/2000/svg" xmlns:xlink="http://www.w3.org/1999/xlink" version="1.1" width="1080" height="1080" viewBox="0 0 1080 1080" xml:space="preserve">
<desc>Created with Fabric.js 4.2.0</desc>
<defs>
</defs>
<rect x="0" y="0" width="100%" height="100%" fill="transparent"></rect>
<g transform="matrix(1 0 0 1 540 540)" id="f28a38bd-b8bc-4ae8-ad07-5642bb4ee028"  >
<rect style="stroke: none; stroke-width: 1; stroke-dasharray: none; stroke-linecap: butt; stroke-dashoffset: 0; stroke-linejoin: miter; stroke-miterlimit: 4; fill: rgb(255,255,255); fill-opacity: 0; fill-rule: nonzero; opacity: 1;" vector-effect="non-scaling-stroke"  x="-540" y="-540" rx="0" ry="0" width="1080" height="1080" />
</g>
<g transform="matrix(Infinity NaN NaN Infinity 0 0)" id="a5296d29-5c44-4f4f-a64d-4eb270b97c96"  >
</g>
<g transform="matrix(59.67 0 0 59.67 540 540)" id="d5670e15-2119-4412-9c27-60c30965de6e"  >
<path style="stroke: rgb(0,0,0); stroke-width: 0; stroke-dasharray: none; stroke-linecap: butt; stroke-dashoffset: 0; stroke-linejoin: miter; stroke-miterlimit: 4; fill: rgb(0,0,0); fill-rule: nonzero; opacity: 0.82;" vector-effect="non-scaling-stroke"  transform=" translate(-12, -12)" d="M 17 10.5 L 17 7 C 17 6.45 16.55 6 16 6 L 4 6 C 3.45 6 3 6.45 3 7 L 3 17 C 3 17.55 3.45 18 4 18 L 16 18 C 16.55 18 17 17.55 17 17 L 17 13.5 L 21 17.5 L 21 6.5 L 17 10.5 z M 14 13 L 11 13 L 11 16 L 9 16 L 9 13 L 6 13 L 6 11 L 9 11 L 9 8 L 11 8 L 11 11 L 14 11 L 14 13 z" stroke-linecap="round" />
</g>
</svg>