<?xml version="1.0" encoding="UTF-8" standalone="no" ?>
<!DOCTYPE svg PUBLIC "-//W3C//DTD SVG 1.1//EN" "http://www.w3.org/Graphics/SVG/1.1/DTD/svg11.dtd">
<svg xmlns="http://www.w3.org/2000/svg" xmlns:xlink="http://www.w3.org/1999/xlink" version="1.1" width="24" height="24" viewBox="0 0 24 24" xml:space="preserve">
<desc>Created with Fabric.js 4.2.0</desc>
<defs>
</defs>
<rect x="0" y="0" width="100%" height="100%" fill="transparent"></rect>
<g transform="matrix(1 0 0 1 12 12)" id="fa1b85ce-12f0-47b2-ab8a-8e8dfb61c1af"  >
<rect style="stroke: none; stroke-width: 1; stroke-dasharray: none; stroke-linecap: butt; stroke-dashoffset: 0; stroke-linejoin: miter; stroke-miterlimit: 4; fill: rgb(255,255,255); fill-opacity: 0; fill-rule: nonzero; opacity: 1;" vector-effect="non-scaling-stroke"  x="-12" y="-12" rx="0" ry="0" width="24" height="24" />
</g>
<g transform="matrix(0 0 0 0 0 0)" id="1378e8a3-1003-4213-b767-16174a9d9cdb"  >
</g>
<g transform="matrix(1.13 0 0 1.13 12 12)"  >
<path style="stroke: rgb(0,0,0); stroke-width: 0; stroke-dasharray: none; stroke-linecap: butt; stroke-dashoffset: 0; stroke-linejoin: miter; stroke-miterlimit: 4; fill: rgb(0,0,0); fill-rule: nonzero; opacity: 1;" vector-effect="non-scaling-stroke"  transform=" translate(-11.74, -11.75)" d="M 15.5 14 L 14.71 14 L 14.430000000000001 13.73 C 15.41 12.59 16 11.11 16 9.5 C 16 5.91 13.09 3 9.5 3 C 5.91 3 3 5.91 3 9.5 C 3 13.09 5.91 16 9.5 16 C 11.11 16 12.59 15.41 13.73 14.43 L 14 14.709999999999999 L 14 15.5 L 19 20.490000000000002 L 20.49 19 L 15.499999999999998 14 z M 9.5 14 C 7.01 14 5 11.99 5 9.5 C 5 7.01 7.01 5 9.5 5 C 11.99 5 14 7.01 14 9.5 C 14 11.99 11.99 14 9.5 14 z" stroke-linecap="round" />
</g>
</svg>