<?xml version="1.0" encoding="UTF-8" standalone="no" ?>
<!DOCTYPE svg PUBLIC "-//W3C//DTD SVG 1.1//EN" "http://www.w3.org/Graphics/SVG/1.1/DTD/svg11.dtd">
<svg xmlns="http://www.w3.org/2000/svg" xmlns:xlink="http://www.w3.org/1999/xlink" version="1.1" width="1080" height="1080" viewBox="0 0 1080 1080" xml:space="preserve">
<desc>Created with Fabric.js 4.2.0</desc>
<defs>
</defs>
<rect x="0" y="0" width="100%" height="100%" fill="transparent"></rect>
<g transform="matrix(1 0 0 1 540 540)" id="f28a38bd-b8bc-4ae8-ad07-5642bb4ee028"  >
<rect style="stroke: none; stroke-width: 1; stroke-dasharray: none; stroke-linecap: butt; stroke-dashoffset: 0; stroke-linejoin: miter; stroke-miterlimit: 4; fill: rgb(255,255,255); fill-opacity: 0; fill-rule: nonzero; opacity: 1;" vector-effect="non-scaling-stroke"  x="-540" y="-540" rx="0" ry="0" width="1080" height="1080" />
</g>
<g transform="matrix(Infinity NaN NaN Infinity 0 0)" id="a5296d29-5c44-4f4f-a64d-4eb270b97c96"  >
</g>
<g transform="matrix(65.12 0 0 65.12 540 540)" id="4f61141d-053d-4a85-9648-ec3165638e77"  >
<path style="stroke: rgb(0,0,0); stroke-width: 0; stroke-dasharray: none; stroke-linecap: butt; stroke-dashoffset: 0; stroke-linejoin: miter; stroke-miterlimit: 4; fill: rgb(0,0,0); fill-rule: nonzero; opacity: 0.72;" vector-effect="non-scaling-stroke"  transform=" translate(-12, -12)" d="M 18.7 8.7 L 5.3 8.7 L 5.3 7 L 18.7 7 L 18.7 8.7 z M 17 3.6999999999999993 L 7 3.6999999999999993 L 7 5.299999999999999 L 17 5.299999999999999 L 17 3.7 z M 20.3 12 L 20.3 18.7 C 20.3 19.7 19.6 20.3 18.7 20.3 L 5.3 20.3 C 4.3 20.3 3.6999999999999997 19.6 3.6999999999999997 18.7 L 3.6999999999999997 12 C 3.6999999999999997 11 4.3999999999999995 10.3 5.3 10.3 L 18.7 10.3 C 19.7 10.3 20.3 11.100000000000001 20.3 12 z M 15.3 15.3 L 10.3 12.600000000000001 L 10.3 18 L 15.3 15.3 z" stroke-linecap="round" />
</g>
</svg>