<?xml version="1.0" encoding="UTF-8" standalone="no" ?>
<!DOCTYPE svg PUBLIC "-//W3C//DTD SVG 1.1//EN" "http://www.w3.org/Graphics/SVG/1.1/DTD/svg11.dtd">
<svg xmlns="http://www.w3.org/2000/svg" xmlns:xlink="http://www.w3.org/1999/xlink" version="1.1" width="1080" height="1080" viewBox="0 0 1080 1080" xml:space="preserve">
<desc>Created with Fabric.js 4.2.0</desc>
<defs>
</defs>
<rect x="0" y="0" width="100%" height="100%" fill="transparent"></rect>
<g transform="matrix(1 0 0 1 540 540)" id="f28a38bd-b8bc-4ae8-ad07-5642bb4ee028"  >
<rect style="stroke: none; stroke-width: 1; stroke-dasharray: none; stroke-linecap: butt; stroke-dashoffset: 0; stroke-linejoin: miter; stroke-miterlimit: 4; fill: rgb(255,255,255); fill-opacity: 0; fill-rule: nonzero; opacity: 1;" vector-effect="non-scaling-stroke"  x="-540" y="-540" rx="0" ry="0" width="1080" height="1080" />
</g>
<g transform="matrix(Infinity NaN NaN Infinity 0 0)" id="a5296d29-5c44-4f4f-a64d-4eb270b97c96"  >
</g>
<g transform="matrix(67.06 0 0 67.06 540 540)" id="1015821e-ff55-4077-b78a-b96320df73cd"  >
<path style="stroke: rgb(0,0,0); stroke-width: 0; stroke-dasharray: none; stroke-linecap: butt; stroke-dashoffset: 0; stroke-linejoin: miter; stroke-miterlimit: 4; fill: rgb(0,0,0); fill-rule: nonzero; opacity: 0.76;" vector-effect="non-scaling-stroke"  transform=" translate(-12, -12)" d="M 4 8 L 8 8 L 8 4 L 4 4 L 4 8 z M 10 20 L 14 20 L 14 16 L 10 16 L 10 20 z M 4 20 L 8 20 L 8 16 L 4 16 L 4 20 z M 4 14 L 8 14 L 8 10 L 4 10 L 4 14 z M 10 14 L 14 14 L 14 10 L 10 10 L 10 14 z M 16 4 L 16 8 L 20 8 L 20 4 L 16 4 z M 10 8 L 14 8 L 14 4 L 10 4 L 10 8 z M 16 14 L 20 14 L 20 10 L 16 10 L 16 14 z M 16 20 L 20 20 L 20 16 L 16 16 L 16 20 z" stroke-linecap="round" />
</g>
</svg>